<svg width="891" height="114" viewBox="0 0 891 114" fill="none" xmlns="http://www.w3.org/2000/svg">
<rect x="437" y="11.6875" width="23.9784" height="78.9231" transform="rotate(90 437 11.6875)" fill="url(#paint0_linear_2636_1258)"/>
<rect x="386.489" y="75.625" width="23.9784" height="50.5108" transform="rotate(-90 386.489 75.625)" fill="url(#paint1_linear_2636_1258)"/>
<rect x="437" y="90.0156" width="23.9784" height="78.9231" transform="rotate(90 437 90.0156)" fill="url(#paint2_linear_2636_1258)"/>
<rect x="358.077" y="40.4609" width="23.6769" height="44.7596" fill="url(#paint3_linear_2636_1258)"/>
<path d="M491.747 36.6641L506.585 61.6493L474.981 113.985H447.23L491.747 36.6641Z" fill="url(#paint4_linear_2636_1258)"/>
<path d="M494.803 31.7128L508.017 11.6875L568.804 113.149H543.696L494.803 31.7128Z" fill="url(#paint5_linear_2636_1258)"/>
<path d="M575.329 33.844V11.6875C575.329 11.6875 632.81 12.4768 635.31 12.4788C637.809 12.4808 661.552 18.0179 662.801 44.9222C664.159 74.2004 641.141 79.7395 641.141 79.7395L671.964 112.974H641.141L614.483 82.9048H605.319V60.7483H626.979C626.979 60.7483 640.308 60.7483 640.308 45.7135C640.308 33.844 626.979 33.844 626.979 33.844H575.329Z" fill="url(#paint6_linear_2636_1258)"/>
<rect x="575.329" y="38.5859" width="24.9919" height="74.3825" fill="url(#paint7_linear_2636_1258)"/>
<path d="M755.449 47.6308L771.523 32.4379C771.523 32.4379 754.359 15.5166 740.14 12.638C727.127 10.0038 706.46 12.6173 694.979 23.3315C685.503 32.1741 677.705 43.2702 676.608 59.0255C675.345 77.1755 681.465 90.1562 695.744 101.566C709.584 112.624 722.749 115.056 740.14 111.441C754.189 108.521 771.523 92.4499 771.523 92.4499L755.449 78.0166C755.449 78.0166 747.488 88.2005 740.14 90.9306C728.72 95.1733 718.717 92.8014 709.522 84.8534C701.234 77.6892 697.3 69.8306 698.806 59.0255C699.944 50.8606 703.197 46.1365 709.522 40.794C718.808 32.9504 728.72 30.4741 740.14 34.7168C747.488 37.4469 755.449 47.6308 755.449 47.6308Z" fill="url(#paint8_linear_2636_1258)"/>
<rect x="8.3457" y="11.0703" width="21.9231" height="102.308" fill="url(#paint9_linear_2636_1258)"/>
<rect x="62.4238" y="87.0938" width="19" height="26.3077" fill="url(#paint10_linear_2636_1258)"/>
<rect x="90.1934" y="63.7188" width="19" height="49.6923" fill="url(#paint11_linear_2636_1258)"/>
<rect x="117.962" y="11.1094" width="19" height="102.308" fill="url(#paint12_linear_2636_1258)"/>
<path d="M8.17775 23.3242L8.17751 10.9009L30.1011 10.9066L82.885 62.2272L65.3464 79.0236L8.17775 23.3242Z" fill="url(#paint13_linear_2636_1258)"/>
<path d="M113.269 32.9026L113.269 11.0627L104.069 11.0579L49.5916 63.6673L65.7694 79.6909L83.308 62.1533L113.269 32.9026Z" fill="url(#paint14_linear_2636_1258)"/>
<path d="M176.941 109.104C188.818 114.708 202.396 115.529 214.861 111.398C227.327 107.267 237.727 98.4991 243.906 86.9112C250.086 75.3232 251.572 61.8025 248.056 49.149C244.541 36.4956 236.294 25.6788 225.023 18.9386C213.752 12.1985 200.32 10.0514 187.51 12.942C174.699 15.8326 163.491 23.5394 156.206 34.4665C148.922 45.3935 146.119 58.7037 148.378 71.6406C150.637 84.5775 157.785 96.15 168.342 103.962L198.769 62.8413L176.941 109.104Z" fill="url(#paint15_linear_2636_1258)"/>
<rect x="8.3457" y="11.0625" width="21.9231" height="102.308" fill="url(#paint16_linear_2636_1258)"/>
<rect x="62.4238" y="87.0938" width="19" height="26.3077" fill="url(#paint17_linear_2636_1258)"/>
<rect x="90.1934" y="63.7188" width="19" height="49.6923" fill="url(#paint18_linear_2636_1258)"/>
<rect x="117.962" y="11.1094" width="19" height="102.308" fill="url(#paint19_linear_2636_1258)"/>
<path d="M8.17775 23.3242L8.17751 10.9009L30.1011 10.9066L82.885 62.2272L65.3464 79.0236L8.17775 23.3242Z" fill="url(#paint20_linear_2636_1258)"/>
<path d="M113.269 32.9026L113.269 11.0627L104.069 11.0579L49.5916 63.6673L65.7694 79.6909L83.308 62.1533L113.269 32.9026Z" fill="url(#paint21_linear_2636_1258)"/>
<circle cx="198.615" cy="62.6076" r="33.6154" fill="white"/>
<path d="M175.5 75.4922L189.746 60.6324L198.668 70.3326L212.052 48.9922L229.5 61.9922C229.5 61.9922 229.246 83.0471 208.865 89.7364C188.485 96.4256 175.5 75.4922 175.5 75.4922Z" fill="url(#paint22_linear_2636_1258)" stroke="white" stroke-width="2"/>
<path d="M337.045 34.0673V11.6875H287.984C287.984 11.6875 274.09 12.1433 268.202 18.0817C257.915 28.4568 258.706 39.6623 258.706 39.6623C258.706 39.6623 262.817 46.8558 272.159 50.0529C277.719 51.956 287.193 50.8522 287.193 50.8522C287.193 50.8522 279.28 51.1394 279.28 42.0601C279.28 36.1401 284.344 34.0673 287.193 34.0673H337.045Z" fill="#E98203"/>
<path d="M316.471 73.232C316.471 73.232 324.384 73.232 324.384 82.024C324.384 90.8161 316.471 90.8161 316.471 90.8161L265.037 91.6154V113.995C265.037 113.995 312.515 113.995 322.01 113.995C330.715 113.995 334.907 111.597 341.001 103.605C344.658 98.8089 345.749 90.8161 345.749 90.8161C345.749 90.8161 339.444 82.3274 333.88 78.8269C327.824 75.0173 316.471 73.232 316.471 73.232Z" fill="#E98203"/>
<path d="M272.159 50.0529C262.817 46.8558 258.706 39.6623 258.706 39.6623C258.706 39.6623 258.987 45.0598 259.498 48.4543C260.475 54.9421 262.311 59.5281 266.619 64.4399C271.576 70.0907 275.762 73.232 283.237 73.232C287.984 73.232 316.471 73.232 316.471 73.232C316.471 73.232 327.824 75.0173 333.88 78.8269C339.444 82.3274 345.749 90.8161 345.749 90.8161C345.749 90.8161 347.179 80.9039 345.749 74.8305C344.214 68.3105 342.934 65.6518 337.836 59.6442C333.088 54.0493 329.132 50.8522 318.845 50.8522C314.097 50.8522 287.193 50.8522 287.193 50.8522C287.193 50.8522 277.719 51.956 272.159 50.0529Z" fill="url(#paint23_linear_2636_1258)"/>
<rect x="784.846" y="11.6875" width="25.5105" height="102.308" fill="url(#paint24_linear_2636_1258)"/>
<rect x="864.567" y="11.6875" width="25.5105" height="102.308" fill="url(#paint25_linear_2636_1258)"/>
<rect x="859.783" y="49.6406" width="26.402" height="44.6434" transform="rotate(90 859.783 49.6406)" fill="url(#paint26_linear_2636_1258)"/>
<defs>
<linearGradient id="paint0_linear_2636_1258" x1="437" y1="51.149" x2="460.978" y2="51.149" gradientUnits="userSpaceOnUse">
<stop stop-color="#FEB800"/>
<stop offset="1" stop-color="#E27200"/>
</linearGradient>
<linearGradient id="paint1_linear_2636_1258" x1="386.489" y1="100.88" x2="410.468" y2="100.88" gradientUnits="userSpaceOnUse">
<stop stop-color="#FEB800"/>
<stop offset="1" stop-color="#E27200"/>
</linearGradient>
<linearGradient id="paint2_linear_2636_1258" x1="437" y1="129.477" x2="460.978" y2="129.477" gradientUnits="userSpaceOnUse">
<stop stop-color="#FEB800"/>
<stop offset="1" stop-color="#E27200"/>
</linearGradient>
<linearGradient id="paint3_linear_2636_1258" x1="358.077" y1="62.8407" x2="381.754" y2="62.8407" gradientUnits="userSpaceOnUse">
<stop stop-color="#FEB800"/>
<stop offset="1" stop-color="#E27200"/>
</linearGradient>
<linearGradient id="paint4_linear_2636_1258" x1="447.23" y1="75.3245" x2="506.585" y2="75.3245" gradientUnits="userSpaceOnUse">
<stop stop-color="#FEB800"/>
<stop offset="1" stop-color="#E27200"/>
</linearGradient>
<linearGradient id="paint5_linear_2636_1258" x1="494.803" y1="62.4184" x2="568.804" y2="62.4184" gradientUnits="userSpaceOnUse">
<stop stop-color="#FEB800"/>
<stop offset="1" stop-color="#E27200"/>
</linearGradient>
<linearGradient id="paint6_linear_2636_1258" x1="575.329" y1="62.3309" x2="671.964" y2="62.3309" gradientUnits="userSpaceOnUse">
<stop stop-color="#FEB800"/>
<stop offset="1" stop-color="#E27200"/>
</linearGradient>
<linearGradient id="paint7_linear_2636_1258" x1="575.329" y1="75.7772" x2="600.321" y2="75.7772" gradientUnits="userSpaceOnUse">
<stop stop-color="#FEB800"/>
<stop offset="1" stop-color="#E27200"/>
</linearGradient>
<linearGradient id="paint8_linear_2636_1258" x1="676.446" y1="62.3431" x2="771.523" y2="62.3431" gradientUnits="userSpaceOnUse">
<stop stop-color="#FEB800"/>
<stop offset="1" stop-color="#E27200"/>
</linearGradient>
<linearGradient id="paint9_linear_2636_1258" x1="8.3457" y1="62.2242" x2="30.2688" y2="62.2242" gradientUnits="userSpaceOnUse">
<stop stop-color="#FEB800"/>
<stop offset="1" stop-color="#E27200"/>
</linearGradient>
<linearGradient id="paint10_linear_2636_1258" x1="62.4238" y1="100.248" x2="81.4238" y2="100.248" gradientUnits="userSpaceOnUse">
<stop stop-color="#FEB800"/>
<stop offset="1" stop-color="#E27200"/>
</linearGradient>
<linearGradient id="paint11_linear_2636_1258" x1="90.1934" y1="88.5649" x2="109.193" y2="88.5649" gradientUnits="userSpaceOnUse">
<stop stop-color="#FEB800"/>
<stop offset="1" stop-color="#E27200"/>
</linearGradient>
<linearGradient id="paint12_linear_2636_1258" x1="117.962" y1="62.2632" x2="136.962" y2="62.2632" gradientUnits="userSpaceOnUse">
<stop stop-color="#FEB800"/>
<stop offset="1" stop-color="#E27200"/>
</linearGradient>
<linearGradient id="paint13_linear_2636_1258" x1="33.3203" y1="50.0695" x2="51.3548" y2="30.1216" gradientUnits="userSpaceOnUse">
<stop stop-color="#FEB800"/>
<stop offset="1" stop-color="#E27200"/>
</linearGradient>
<linearGradient id="paint14_linear_2636_1258" x1="95.4432" y1="52.8635" x2="78.5257" y2="34.1511" gradientUnits="userSpaceOnUse">
<stop stop-color="#FEB800"/>
<stop offset="1" stop-color="#E27200"/>
</linearGradient>
<linearGradient id="paint15_linear_2636_1258" x1="147.615" y1="62.8413" x2="249.923" y2="62.8413" gradientUnits="userSpaceOnUse">
<stop stop-color="#FEB800"/>
<stop offset="1" stop-color="#E27200"/>
</linearGradient>
<linearGradient id="paint16_linear_2636_1258" x1="8.3457" y1="62.2163" x2="30.2688" y2="62.2163" gradientUnits="userSpaceOnUse">
<stop stop-color="#FEB800"/>
<stop offset="1" stop-color="#E27200"/>
</linearGradient>
<linearGradient id="paint17_linear_2636_1258" x1="62.4238" y1="100.248" x2="81.4238" y2="100.248" gradientUnits="userSpaceOnUse">
<stop stop-color="#FEB800"/>
<stop offset="1" stop-color="#E27200"/>
</linearGradient>
<linearGradient id="paint18_linear_2636_1258" x1="90.1934" y1="88.5649" x2="109.193" y2="88.5649" gradientUnits="userSpaceOnUse">
<stop stop-color="#FEB800"/>
<stop offset="1" stop-color="#E27200"/>
</linearGradient>
<linearGradient id="paint19_linear_2636_1258" x1="117.962" y1="62.2632" x2="136.962" y2="62.2632" gradientUnits="userSpaceOnUse">
<stop stop-color="#FEB800"/>
<stop offset="1" stop-color="#E27200"/>
</linearGradient>
<linearGradient id="paint20_linear_2636_1258" x1="33.3203" y1="50.0695" x2="51.3548" y2="30.1216" gradientUnits="userSpaceOnUse">
<stop stop-color="#FEB800"/>
<stop offset="1" stop-color="#E27200"/>
</linearGradient>
<linearGradient id="paint21_linear_2636_1258" x1="95.4432" y1="52.8635" x2="78.5257" y2="34.1511" gradientUnits="userSpaceOnUse">
<stop stop-color="#FEB800"/>
<stop offset="1" stop-color="#E27200"/>
</linearGradient>
<linearGradient id="paint22_linear_2636_1258" x1="175.5" y1="70.0237" x2="229.5" y2="70.0237" gradientUnits="userSpaceOnUse">
<stop stop-color="#FEB800"/>
<stop offset="1" stop-color="#E27200"/>
</linearGradient>
<linearGradient id="paint23_linear_2636_1258" x1="258.692" y1="62.8413" x2="346.385" y2="62.8413" gradientUnits="userSpaceOnUse">
<stop stop-color="#FEB800"/>
<stop offset="1" stop-color="#E27200"/>
</linearGradient>
<linearGradient id="paint24_linear_2636_1258" x1="784.846" y1="62.8413" x2="810.356" y2="62.8413" gradientUnits="userSpaceOnUse">
<stop stop-color="#FEB800"/>
<stop offset="1" stop-color="#E27200"/>
</linearGradient>
<linearGradient id="paint25_linear_2636_1258" x1="864.567" y1="62.8413" x2="890.078" y2="62.8413" gradientUnits="userSpaceOnUse">
<stop stop-color="#FEB800"/>
<stop offset="1" stop-color="#E27200"/>
</linearGradient>
<linearGradient id="paint26_linear_2636_1258" x1="859.783" y1="71.9623" x2="886.185" y2="71.9623" gradientUnits="userSpaceOnUse">
<stop stop-color="#FEB800"/>
<stop offset="1" stop-color="#E27200"/>
</linearGradient>
</defs>
</svg>
