<svg width="249" height="84" viewBox="0 0 249 84" fill="none" xmlns="http://www.w3.org/2000/svg">
<path d="M1.328 81V69.08H2.768L7.232 75.432H6.496L10.928 69.08H12.368V81H10.784V71.064L11.344 71.24L6.912 77.48H6.784L2.4 71.24L2.896 71.064V81H1.328ZM20.7115 81.192C19.8688 81.192 19.0795 81.0427 18.3435 80.744C17.6075 80.4347 16.9622 80.0027 16.4075 79.448C15.8635 78.8933 15.4368 78.2427 15.1275 77.496C14.8182 76.7387 14.6635 75.9173 14.6635 75.032C14.6635 74.136 14.8182 73.3147 15.1275 72.568C15.4368 71.8213 15.8635 71.1707 16.4075 70.616C16.9622 70.0613 17.6022 69.6347 18.3275 69.336C19.0635 69.0373 19.8582 68.888 20.7115 68.888C21.5648 68.888 22.3542 69.0427 23.0795 69.352C23.8155 69.6507 24.4555 70.0773 24.9995 70.632C25.5542 71.176 25.9862 71.8213 26.2955 72.568C26.6155 73.3147 26.7755 74.136 26.7755 75.032C26.7755 75.9173 26.6155 76.7387 26.2955 77.496C25.9862 78.2427 25.5542 78.8933 24.9995 79.448C24.4555 80.0027 23.8155 80.4347 23.0795 80.744C22.3542 81.0427 21.5648 81.192 20.7115 81.192ZM20.7115 79.736C21.3728 79.736 21.9755 79.6187 22.5195 79.384C23.0635 79.1387 23.5328 78.8027 23.9275 78.376C24.3328 77.9387 24.6422 77.4373 24.8555 76.872C25.0795 76.296 25.1915 75.6827 25.1915 75.032C25.1915 74.3813 25.0795 73.7733 24.8555 73.208C24.6422 72.6427 24.3328 72.1467 23.9275 71.72C23.5328 71.2827 23.0635 70.9467 22.5195 70.712C21.9755 70.4667 21.3728 70.344 20.7115 70.344C20.0608 70.344 19.4635 70.4667 18.9195 70.712C18.3755 70.9467 17.9008 71.2827 17.4955 71.72C17.1008 72.1467 16.7915 72.6427 16.5675 73.208C16.3435 73.7733 16.2315 74.3813 16.2315 75.032C16.2315 75.6827 16.3435 76.296 16.5675 76.872C16.7915 77.4373 17.1008 77.9387 17.4955 78.376C17.9008 78.8027 18.3755 79.1387 18.9195 79.384C19.4635 79.6187 20.0608 79.736 20.7115 79.736ZM29.0624 81V69.08H30.3744L37.2224 78.712L36.6304 78.776V69.08H38.2144V81H36.9024L30.0864 71.304L30.6304 71.24V81H29.0624ZM40.8749 81V69.08H42.4429V81H40.8749ZM47.1736 81V70.52H43.9416V69.08H51.9416V70.52H48.7576V81H47.1736ZM58.6646 81.192C57.822 81.192 57.0326 81.0427 56.2966 80.744C55.5606 80.4347 54.9153 80.0027 54.3606 79.448C53.8166 78.8933 53.39 78.2427 53.0806 77.496C52.7713 76.7387 52.6166 75.9173 52.6166 75.032C52.6166 74.136 52.7713 73.3147 53.0806 72.568C53.39 71.8213 53.8166 71.1707 54.3606 70.616C54.9153 70.0613 55.5553 69.6347 56.2806 69.336C57.0166 69.0373 57.8113 68.888 58.6646 68.888C59.518 68.888 60.3073 69.0427 61.0326 69.352C61.7686 69.6507 62.4086 70.0773 62.9526 70.632C63.5073 71.176 63.9393 71.8213 64.2486 72.568C64.5686 73.3147 64.7286 74.136 64.7286 75.032C64.7286 75.9173 64.5686 76.7387 64.2486 77.496C63.9393 78.2427 63.5073 78.8933 62.9526 79.448C62.4086 80.0027 61.7686 80.4347 61.0326 80.744C60.3073 81.0427 59.518 81.192 58.6646 81.192ZM58.6646 79.736C59.326 79.736 59.9286 79.6187 60.4726 79.384C61.0166 79.1387 61.486 78.8027 61.8806 78.376C62.286 77.9387 62.5953 77.4373 62.8086 76.872C63.0326 76.296 63.1446 75.6827 63.1446 75.032C63.1446 74.3813 63.0326 73.7733 62.8086 73.208C62.5953 72.6427 62.286 72.1467 61.8806 71.72C61.486 71.2827 61.0166 70.9467 60.4726 70.712C59.9286 70.4667 59.326 70.344 58.6646 70.344C58.014 70.344 57.4166 70.4667 56.8726 70.712C56.3286 70.9467 55.854 71.2827 55.4486 71.72C55.054 72.1467 54.7446 72.6427 54.5206 73.208C54.2966 73.7733 54.1846 74.3813 54.1846 75.032C54.1846 75.6827 54.2966 76.296 54.5206 76.872C54.7446 77.4373 55.054 77.9387 55.4486 78.376C55.854 78.8027 56.3286 79.1387 56.8726 79.384C57.4166 79.6187 58.014 79.736 58.6646 79.736ZM67.0155 81V69.08H71.2235C72.0128 69.08 72.7062 69.2293 73.3035 69.528C73.9008 69.8267 74.3648 70.2533 74.6955 70.808C75.0368 71.3627 75.2075 72.0133 75.2075 72.76C75.2075 73.6027 74.9942 74.3173 74.5675 74.904C74.1408 75.4907 73.5648 75.912 72.8395 76.168L75.6075 81H73.7835L70.8715 75.832L71.9115 76.44H68.5835V81H67.0155ZM68.5835 75H71.2715C71.7408 75 72.1515 74.9093 72.5035 74.728C72.8555 74.5467 73.1275 74.2853 73.3195 73.944C73.5222 73.6027 73.6235 73.208 73.6235 72.76C73.6235 72.3013 73.5222 71.9067 73.3195 71.576C73.1275 71.2347 72.8555 70.9733 72.5035 70.792C72.1515 70.6107 71.7408 70.52 71.2715 70.52H68.5835V75ZM77.3905 81V69.08H78.9585V81H77.3905ZM81.6093 81V69.08H82.9213L89.7693 78.712L89.1773 78.776V69.08H90.7613V81H89.4493L82.6332 71.304L83.1773 71.24V81H81.6093ZM98.9258 81.192C98.0831 81.192 97.3044 81.0427 96.5898 80.744C95.8751 80.4347 95.2564 80.0027 94.7338 79.448C94.2111 78.8933 93.8004 78.2427 93.5018 77.496C93.2138 76.7493 93.0698 75.9333 93.0698 75.048C93.0698 74.152 93.2138 73.3307 93.5018 72.584C93.7898 71.8373 94.1951 71.1867 94.7178 70.632C95.2404 70.0773 95.8591 69.6507 96.5738 69.352C97.2884 69.0427 98.0671 68.888 98.9098 68.888C99.7311 68.888 100.467 69.032 101.118 69.32C101.779 69.608 102.334 69.9813 102.782 70.44C103.24 70.8987 103.566 71.3893 103.758 71.912L102.35 72.6C102.072 71.9067 101.64 71.3573 101.054 70.952C100.467 70.5467 99.7524 70.344 98.9098 70.344C98.0778 70.344 97.3364 70.5413 96.6858 70.936C96.0458 71.3307 95.5444 71.88 95.1818 72.584C94.8191 73.288 94.6378 74.1093 94.6378 75.048C94.6378 75.976 94.8191 76.792 95.1818 77.496C95.5551 78.2 96.0618 78.7493 96.7018 79.144C97.3524 79.5387 98.0938 79.736 98.9258 79.736C99.6511 79.736 100.307 79.5813 100.894 79.272C101.48 78.9627 101.944 78.536 102.286 77.992C102.627 77.448 102.798 76.8187 102.798 76.104V75.368L103.518 76.04H98.9098V74.68H104.382V75.736C104.382 76.568 104.238 77.32 103.95 77.992C103.662 78.664 103.267 79.24 102.766 79.72C102.264 80.1893 101.683 80.552 101.022 80.808C100.36 81.064 99.6618 81.192 98.9258 81.192ZM109.266 81V69.08H110.834V75.784L110.45 75.624L116.146 69.08H118.114L113.33 74.6L113.41 73.48L118.354 81H116.482L112.706 75.336L110.834 77.48V81H109.266ZM119.859 81V69.08H121.427V79.56H126.659V81H119.859ZM132.429 81.192C131.565 81.192 130.797 81.0107 130.125 80.648C129.464 80.2853 128.947 79.7893 128.573 79.16C128.211 78.52 128.029 77.7947 128.029 76.984V69.08H129.613V76.952C129.613 77.496 129.731 77.9813 129.965 78.408C130.211 78.824 130.541 79.1493 130.957 79.384C131.384 79.6187 131.875 79.736 132.429 79.736C132.984 79.736 133.469 79.6187 133.885 79.384C134.312 79.1493 134.643 78.824 134.877 78.408C135.123 77.9813 135.245 77.496 135.245 76.952V69.08H136.829V76.984C136.829 77.7947 136.643 78.52 136.269 79.16C135.907 79.7893 135.395 80.2853 134.733 80.648C134.072 81.0107 133.304 81.192 132.429 81.192ZM143.502 81.192C142.745 81.192 142.051 81.0533 141.422 80.776C140.793 80.488 140.259 80.0987 139.822 79.608C139.385 79.1173 139.07 78.568 138.878 77.96L140.238 77.4C140.526 78.168 140.953 78.76 141.518 79.176C142.094 79.5813 142.766 79.784 143.534 79.784C144.003 79.784 144.414 79.7093 144.766 79.56C145.118 79.4107 145.39 79.2027 145.582 78.936C145.785 78.6587 145.886 78.3387 145.886 77.976C145.886 77.4747 145.742 77.08 145.454 76.792C145.177 76.4933 144.766 76.2693 144.222 76.12L142.03 75.448C141.166 75.1813 140.505 74.76 140.046 74.184C139.587 73.608 139.358 72.9467 139.358 72.2C139.358 71.5493 139.513 70.9787 139.822 70.488C140.142 69.9867 140.579 69.5973 141.134 69.32C141.699 69.032 142.339 68.888 143.054 68.888C143.769 68.888 144.414 69.016 144.99 69.272C145.577 69.528 146.073 69.8747 146.478 70.312C146.883 70.7387 147.182 71.2293 147.374 71.784L146.03 72.344C145.774 71.672 145.39 71.1653 144.878 70.824C144.366 70.472 143.763 70.296 143.07 70.296C142.643 70.296 142.265 70.3707 141.934 70.52C141.614 70.6587 141.363 70.8667 141.182 71.144C141.011 71.4107 140.926 71.7307 140.926 72.104C140.926 72.5413 141.065 72.9307 141.342 73.272C141.619 73.6133 142.041 73.8747 142.606 74.056L144.606 74.648C145.545 74.936 146.254 75.3467 146.734 75.88C147.214 76.4133 147.454 77.0747 147.454 77.864C147.454 78.5147 147.283 79.0907 146.942 79.592C146.611 80.0933 146.147 80.488 145.55 80.776C144.963 81.0533 144.281 81.192 143.502 81.192ZM151.83 81V70.52H148.598V69.08H156.598V70.52H153.414V81H151.83ZM158.109 81V69.08H165.869V70.52H159.677V74.296H165.549V75.736H159.677V79.56H165.869V81H158.109ZM167.812 81V69.08H172.02C172.81 69.08 173.503 69.2293 174.1 69.528C174.698 69.8267 175.162 70.2533 175.492 70.808C175.834 71.3627 176.004 72.0133 176.004 72.76C176.004 73.6027 175.791 74.3173 175.364 74.904C174.938 75.4907 174.362 75.912 173.636 76.168L176.404 81H174.58L171.668 75.832L172.708 76.44H169.38V81H167.812ZM169.38 75H172.068C172.538 75 172.948 74.9093 173.3 74.728C173.652 74.5467 173.924 74.2853 174.116 73.944C174.319 73.6027 174.42 73.208 174.42 72.76C174.42 72.3013 174.319 71.9067 174.116 71.576C173.924 71.2347 173.652 70.9733 173.3 70.792C172.948 70.6107 172.538 70.52 172.068 70.52H169.38V75ZM179.801 81L184.073 69.08H185.929L190.201 81H188.521L187.545 78.2H182.457L181.481 81H179.801ZM182.953 76.76H187.049L184.777 70.216H185.225L182.953 76.76ZM191.703 81V69.08H193.015L199.863 78.712L199.271 78.776V69.08H200.855V81H199.543L192.727 71.304L193.271 71.24V81H191.703ZM202.364 81L206.636 69.08H208.492L212.764 81H211.084L210.108 78.2H205.02L204.044 81H202.364ZM205.516 76.76H209.612L207.34 70.216H207.788L205.516 76.76ZM214.266 81V69.08H215.834V79.56H221.066V81H214.266ZM222.828 81V69.08H224.396V81H222.828ZM229.127 81V70.52H225.895V69.08H233.895V70.52H230.711V81H229.127ZM235.406 81V69.08H236.974V81H235.406ZM239.625 81V69.08H241.193V75.784L240.809 75.624L246.505 69.08H248.473L243.689 74.6L243.769 73.48L248.713 81H246.841L243.065 75.336L241.193 77.48V81H239.625Z" fill="url(#paint0_linear_2243_798)"/>
<rect x="3.13477" y="4.15625" width="8.23285" height="38.4215" fill="url(#paint1_linear_2243_798)"/>
<rect x="23.4414" y="32.7188" width="7.13513" height="9.87982" fill="url(#paint2_linear_2243_798)"/>
<rect x="33.8711" y="23.9375" width="7.13513" height="18.6619" fill="url(#paint3_linear_2243_798)"/>
<rect x="44.2988" y="4.17969" width="7.13513" height="38.4215" fill="url(#paint4_linear_2243_798)"/>
<path d="M3.07102 8.76111L3.07093 4.09556L11.304 4.09771L31.1261 23.3711L24.5398 29.679L3.07102 8.76111Z" fill="url(#paint5_linear_2243_798)"/>
<path d="M42.5364 12.371L42.5364 4.16907L39.0815 4.16728L18.6234 23.9247L24.6988 29.9423L31.2851 23.3561L42.5364 12.371Z" fill="url(#paint6_linear_2243_798)"/>
<path d="M99.1836 20.1328L108.514 29.9397V43.7344H99.1836V20.1328Z" fill="url(#paint7_linear_2243_798)"/>
<path d="M124.042 13.3131L133.373 4.42188V43.9412H124.042V13.3131Z" fill="url(#paint8_linear_2243_798)"/>
<path d="M99.3428 17.2335V4.42188L133.214 38.9297L133.372 43.9412H124.085L99.3428 17.2335Z" fill="url(#paint9_linear_2243_798)"/>
<path d="M140.897 4.20312H150.777V22.865L140.897 13.2596V4.20312Z" fill="url(#paint10_linear_2243_798)"/>
<path d="M151.011 43.7266H140.898V16.4192L150.503 25.6136L151.011 43.7266Z" fill="url(#paint11_linear_2243_798)"/>
<path d="M157.071 21.4922L166.951 30.7545V43.7218H157.071V21.4922Z" fill="url(#paint12_linear_2243_798)"/>
<path d="M164.242 24.6366L195.735 4.10938V14.9772L171.926 32.3209L164.242 24.6366Z" fill="url(#paint13_linear_2243_798)"/>
<path d="M157.071 4.20312L197.083 43.7224H183.746L157.071 18.0349V4.20312Z" fill="url(#paint14_linear_2243_798)"/>
<path d="M217.072 14.0078L222.835 23.6132L210.561 43.7333H199.783L217.072 14.0078Z" fill="url(#paint15_linear_2243_798)"/>
<path d="M218.26 12.1049L223.392 4.40625L247 43.4125H237.249L218.26 12.1049Z" fill="url(#paint16_linear_2243_798)"/>
<mask id="path-18-inside-1_2243_798" fill="white">
<path d="M90.9682 12.2829C89.0116 9.68859 86.4453 7.61691 83.4968 6.25135C80.5483 4.88579 77.3085 4.26849 74.0645 4.45415C70.8204 4.63981 67.6722 5.62269 64.8988 7.31572C62.1253 9.00876 59.8121 11.3597 58.1642 14.1603C56.5162 16.9609 55.5844 20.1247 55.4512 23.3714C55.318 26.6182 55.9875 29.8477 57.4005 32.7739C58.8134 35.7001 60.9262 38.2326 63.5517 40.1472C66.1771 42.0618 69.2342 43.2993 72.4522 43.7501L75.1934 24.1815L90.9682 12.2829Z"/>
</mask>
<path d="M90.9682 12.2829C89.0116 9.68859 86.4453 7.61691 83.4968 6.25135C80.5483 4.88579 77.3085 4.26849 74.0645 4.45415C70.8204 4.63981 67.6722 5.62269 64.8988 7.31572C62.1253 9.00876 59.8121 11.3597 58.1642 14.1603C56.5162 16.9609 55.5844 20.1247 55.4512 23.3714C55.318 26.6182 55.9875 29.8477 57.4005 32.7739C58.8134 35.7001 60.9262 38.2326 63.5517 40.1472C66.1771 42.0618 69.2342 43.2993 72.4522 43.7501L75.1934 24.1815L90.9682 12.2829Z" fill="url(#paint17_linear_2243_798)" stroke="white" stroke-width="2" mask="url(#path-18-inside-1_2243_798)"/>
<mask id="path-19-inside-2_2243_798" fill="white">
<path d="M72.3584 43.7367C75.2654 44.1582 78.2298 43.9262 81.0359 43.0576C83.8419 42.189 86.419 40.7057 88.5796 38.7155L75.1934 24.1815L72.3584 43.7367Z"/>
</mask>
<path d="M72.3584 43.7367C75.2654 44.1582 78.2298 43.9262 81.0359 43.0576C83.8419 42.189 86.419 40.7057 88.5796 38.7155L75.1934 24.1815L72.3584 43.7367Z" fill="url(#paint18_linear_2243_798)" stroke="white" stroke-width="2" mask="url(#path-19-inside-2_2243_798)"/>
<mask id="path-20-inside-3_2243_798" fill="white">
<path d="M88.418 38.8628C92.1038 35.5424 94.4058 30.9571 94.8667 26.0176C95.3277 21.0781 93.9139 16.146 90.9061 12.2009L75.1934 24.1815L88.418 38.8628Z"/>
</mask>
<path d="M88.418 38.8628C92.1038 35.5424 94.4058 30.9571 94.8667 26.0176C95.3277 21.0781 93.9139 16.146 90.9061 12.2009L75.1934 24.1815L88.418 38.8628Z" fill="url(#paint19_linear_2243_798)" stroke="white" stroke-width="2" mask="url(#path-20-inside-3_2243_798)"/>
<defs>
<linearGradient id="paint0_linear_2243_798" x1="8.715" y1="64.8" x2="11.8114" y2="103.151" gradientUnits="userSpaceOnUse">
<stop stop-color="#FEB800"/>
<stop offset="1" stop-color="#E27200"/>
</linearGradient>
<linearGradient id="paint1_linear_2243_798" x1="3.42292" y1="5.69311" x2="18.5431" y2="8.91624" gradientUnits="userSpaceOnUse">
<stop stop-color="#FEB800"/>
<stop offset="1" stop-color="#E27200"/>
</linearGradient>
<linearGradient id="paint2_linear_2243_798" x1="23.6911" y1="33.1139" x2="32.7268" y2="39.6056" gradientUnits="userSpaceOnUse">
<stop stop-color="#FEB800"/>
<stop offset="1" stop-color="#E27200"/>
</linearGradient>
<linearGradient id="paint3_linear_2243_798" x1="34.1208" y1="24.684" x2="46.089" y2="29.2362" gradientUnits="userSpaceOnUse">
<stop stop-color="#FEB800"/>
<stop offset="1" stop-color="#E27200"/>
</linearGradient>
<linearGradient id="paint4_linear_2243_798" x1="44.5486" y1="5.71655" x2="57.7961" y2="8.16395" gradientUnits="userSpaceOnUse">
<stop stop-color="#FEB800"/>
<stop offset="1" stop-color="#E27200"/>
</linearGradient>
<linearGradient id="paint5_linear_2243_798" x1="1.23808" y1="8.13505" x2="17.1171" y2="-1.51957" gradientUnits="userSpaceOnUse">
<stop stop-color="#FEB800"/>
<stop offset="1" stop-color="#E27200"/>
</linearGradient>
<linearGradient id="paint6_linear_2243_798" x1="46.1932" y1="10.0619" x2="31.2713" y2="1.10786" gradientUnits="userSpaceOnUse">
<stop stop-color="#FEB800"/>
<stop offset="1" stop-color="#E27200"/>
</linearGradient>
<linearGradient id="paint7_linear_2243_798" x1="99.5102" y1="21.0769" x2="115.025" y2="27.1788" gradientUnits="userSpaceOnUse">
<stop stop-color="#FEB800"/>
<stop offset="1" stop-color="#E27200"/>
</linearGradient>
<linearGradient id="paint8_linear_2243_798" x1="124.369" y1="6.00265" x2="141.347" y2="9.99047" gradientUnits="userSpaceOnUse">
<stop stop-color="#FEB800"/>
<stop offset="1" stop-color="#E27200"/>
</linearGradient>
<linearGradient id="paint9_linear_2243_798" x1="100.534" y1="6.00265" x2="138.218" y2="38.2836" gradientUnits="userSpaceOnUse">
<stop stop-color="#FEB800"/>
<stop offset="1" stop-color="#E27200"/>
</linearGradient>
<linearGradient id="paint10_linear_2243_798" x1="141.243" y1="4.9496" x2="156.093" y2="12.7703" gradientUnits="userSpaceOnUse">
<stop stop-color="#FEB800"/>
<stop offset="1" stop-color="#E27200"/>
</linearGradient>
<linearGradient id="paint11_linear_2243_798" x1="150.657" y1="42.6343" x2="133.561" y2="36.3359" gradientUnits="userSpaceOnUse">
<stop stop-color="#FEB800"/>
<stop offset="1" stop-color="#E27200"/>
</linearGradient>
<linearGradient id="paint12_linear_2243_798" x1="157.417" y1="22.3814" x2="173.284" y2="29.3966" gradientUnits="userSpaceOnUse">
<stop stop-color="#FEB800"/>
<stop offset="1" stop-color="#E27200"/>
</linearGradient>
<linearGradient id="paint13_linear_2243_798" x1="165.344" y1="5.23784" x2="192.42" y2="35.3062" gradientUnits="userSpaceOnUse">
<stop stop-color="#FEB800"/>
<stop offset="1" stop-color="#E27200"/>
</linearGradient>
<linearGradient id="paint14_linear_2243_798" x1="158.472" y1="5.7839" x2="196.607" y2="44.1946" gradientUnits="userSpaceOnUse">
<stop stop-color="#FEB800"/>
<stop offset="1" stop-color="#E27200"/>
</linearGradient>
<linearGradient id="paint15_linear_2243_798" x1="200.59" y1="15.1968" x2="228.336" y2="36.6025" gradientUnits="userSpaceOnUse">
<stop stop-color="#FEB800"/>
<stop offset="1" stop-color="#E27200"/>
</linearGradient>
<linearGradient id="paint16_linear_2243_798" x1="219.266" y1="5.9665" x2="255.162" y2="32.2778" gradientUnits="userSpaceOnUse">
<stop stop-color="#FEB800"/>
<stop offset="1" stop-color="#E27200"/>
</linearGradient>
<linearGradient id="paint17_linear_2243_798" x1="56.8177" y1="6.00265" x2="94.9538" y2="43.9396" gradientUnits="userSpaceOnUse">
<stop stop-color="#FEB800"/>
<stop offset="1" stop-color="#E27200"/>
</linearGradient>
<linearGradient id="paint18_linear_2243_798" x1="56.8177" y1="6.00265" x2="94.9538" y2="43.9396" gradientUnits="userSpaceOnUse">
<stop stop-color="#FEB800"/>
<stop offset="1" stop-color="#E27200"/>
</linearGradient>
<linearGradient id="paint19_linear_2243_798" x1="56.8177" y1="6.00265" x2="94.9538" y2="43.9396" gradientUnits="userSpaceOnUse">
<stop stop-color="#FEB800"/>
<stop offset="1" stop-color="#E27200"/>
</linearGradient>
</defs>
</svg>
