<svg width="464" height="37" viewBox="0 0 464 37" fill="none" xmlns="http://www.w3.org/2000/svg">
<path d="M54.2909 18V8.315H55.4609L59.0879 13.476H58.4899L62.0909 8.315H63.2609V18H61.9739V9.927L62.4289 10.07L58.8279 15.14H58.7239L55.1619 10.07L55.5649 9.927V18H54.2909ZM70.04 18.156C69.3553 18.156 68.714 18.0347 68.116 17.792C67.518 17.5407 66.9937 17.1897 66.543 16.739C66.101 16.2883 65.7543 15.7597 65.503 15.153C65.2517 14.5377 65.126 13.8703 65.126 13.151C65.126 12.423 65.2517 11.7557 65.503 11.149C65.7543 10.5423 66.101 10.0137 66.543 9.563C66.9937 9.11233 67.5137 8.76567 68.103 8.523C68.701 8.28033 69.3467 8.159 70.04 8.159C70.7333 8.159 71.3747 8.28467 71.964 8.536C72.562 8.77867 73.082 9.12533 73.524 9.576C73.9747 10.018 74.3257 10.5423 74.577 11.149C74.837 11.7557 74.967 12.423 74.967 13.151C74.967 13.8703 74.837 14.5377 74.577 15.153C74.3257 15.7597 73.9747 16.2883 73.524 16.739C73.082 17.1897 72.562 17.5407 71.964 17.792C71.3747 18.0347 70.7333 18.156 70.04 18.156ZM70.04 16.973C70.5773 16.973 71.067 16.8777 71.509 16.687C71.951 16.4877 72.3323 16.2147 72.653 15.868C72.9823 15.5127 73.2337 15.1053 73.407 14.646C73.589 14.178 73.68 13.6797 73.68 13.151C73.68 12.6223 73.589 12.1283 73.407 11.669C73.2337 11.2097 72.9823 10.8067 72.653 10.46C72.3323 10.1047 71.951 9.83167 71.509 9.641C71.067 9.44167 70.5773 9.342 70.04 9.342C69.5113 9.342 69.026 9.44167 68.584 9.641C68.142 9.83167 67.7563 10.1047 67.427 10.46C67.1063 10.8067 66.855 11.2097 66.673 11.669C66.491 12.1283 66.4 12.6223 66.4 13.151C66.4 13.6797 66.491 14.178 66.673 14.646C66.855 15.1053 67.1063 15.5127 67.427 15.868C67.7563 16.2147 68.142 16.4877 68.584 16.687C69.026 16.8777 69.5113 16.973 70.04 16.973ZM76.8251 18V8.315H77.8911L83.4551 16.141L82.9741 16.193V8.315H84.2611V18H83.1951L77.6571 10.122L78.0991 10.07V18H76.8251ZM86.4228 18V8.315H87.6968V18H86.4228ZM91.5405 18V9.485H88.9145V8.315H95.4145V9.485H92.8275V18H91.5405ZM100.877 18.156C100.192 18.156 99.5509 18.0347 98.9529 17.792C98.3549 17.5407 97.8306 17.1897 97.3799 16.739C96.9379 16.2883 96.5913 15.7597 96.3399 15.153C96.0886 14.5377 95.9629 13.8703 95.9629 13.151C95.9629 12.423 96.0886 11.7557 96.3399 11.149C96.5913 10.5423 96.9379 10.0137 97.3799 9.563C97.8306 9.11233 98.3506 8.76567 98.9399 8.523C99.5379 8.28033 100.184 8.159 100.877 8.159C101.57 8.159 102.212 8.28467 102.801 8.536C103.399 8.77867 103.919 9.12533 104.361 9.576C104.812 10.018 105.163 10.5423 105.414 11.149C105.674 11.7557 105.804 12.423 105.804 13.151C105.804 13.8703 105.674 14.5377 105.414 15.153C105.163 15.7597 104.812 16.2883 104.361 16.739C103.919 17.1897 103.399 17.5407 102.801 17.792C102.212 18.0347 101.57 18.156 100.877 18.156ZM100.877 16.973C101.414 16.973 101.904 16.8777 102.346 16.687C102.788 16.4877 103.169 16.2147 103.49 15.868C103.819 15.5127 104.071 15.1053 104.244 14.646C104.426 14.178 104.517 13.6797 104.517 13.151C104.517 12.6223 104.426 12.1283 104.244 11.669C104.071 11.2097 103.819 10.8067 103.49 10.46C103.169 10.1047 102.788 9.83167 102.346 9.641C101.904 9.44167 101.414 9.342 100.877 9.342C100.348 9.342 99.8629 9.44167 99.4209 9.641C98.9789 9.83167 98.5933 10.1047 98.2639 10.46C97.9433 10.8067 97.6919 11.2097 97.5099 11.669C97.3279 12.1283 97.2369 12.6223 97.2369 13.151C97.2369 13.6797 97.3279 14.178 97.5099 14.646C97.6919 15.1053 97.9433 15.5127 98.2639 15.868C98.5933 16.2147 98.9789 16.4877 99.4209 16.687C99.8629 16.8777 100.348 16.973 100.877 16.973ZM107.662 18V8.315H111.081C111.722 8.315 112.286 8.43633 112.771 8.679C113.256 8.92167 113.633 9.26833 113.902 9.719C114.179 10.1697 114.318 10.6983 114.318 11.305C114.318 11.9897 114.145 12.5703 113.798 13.047C113.451 13.5237 112.983 13.866 112.394 14.074L114.643 18H113.161L110.795 13.801L111.64 14.295H108.936V18H107.662ZM108.936 13.125H111.12C111.501 13.125 111.835 13.0513 112.121 12.904C112.407 12.7567 112.628 12.5443 112.784 12.267C112.949 11.9897 113.031 11.669 113.031 11.305C113.031 10.9323 112.949 10.6117 112.784 10.343C112.628 10.0657 112.407 9.85333 112.121 9.706C111.835 9.55867 111.501 9.485 111.12 9.485H108.936V13.125ZM116.092 18V8.315H117.366V18H116.092ZM119.519 18V8.315H120.585L126.149 16.141L125.668 16.193V8.315H126.955V18H125.889L120.351 10.122L120.793 10.07V18H119.519ZM133.589 18.156C132.904 18.156 132.272 18.0347 131.691 17.792C131.11 17.5407 130.608 17.1897 130.183 16.739C129.758 16.2883 129.425 15.7597 129.182 15.153C128.948 14.5463 128.831 13.8833 128.831 13.164C128.831 12.436 128.948 11.7687 129.182 11.162C129.416 10.5553 129.745 10.0267 130.17 9.576C130.595 9.12533 131.097 8.77867 131.678 8.536C132.259 8.28467 132.891 8.159 133.576 8.159C134.243 8.159 134.841 8.276 135.37 8.51C135.907 8.744 136.358 9.04733 136.722 9.42C137.095 9.79267 137.359 10.1913 137.515 10.616L136.371 11.175C136.146 10.6117 135.795 10.1653 135.318 9.836C134.841 9.50667 134.261 9.342 133.576 9.342C132.9 9.342 132.298 9.50233 131.769 9.823C131.249 10.1437 130.842 10.59 130.547 11.162C130.252 11.734 130.105 12.4013 130.105 13.164C130.105 13.918 130.252 14.581 130.547 15.153C130.85 15.725 131.262 16.1713 131.782 16.492C132.311 16.8127 132.913 16.973 133.589 16.973C134.178 16.973 134.711 16.8473 135.188 16.596C135.665 16.3447 136.042 15.998 136.319 15.556C136.596 15.114 136.735 14.6027 136.735 14.022V13.424L137.32 13.97H133.576V12.865H138.022V13.723C138.022 14.399 137.905 15.01 137.671 15.556C137.437 16.102 137.116 16.57 136.709 16.96C136.302 17.3413 135.829 17.636 135.292 17.844C134.755 18.052 134.187 18.156 133.589 18.156ZM141.99 18V8.315H143.264V13.762L142.952 13.632L147.58 8.315H149.179L145.292 12.8L145.357 11.89L149.374 18H147.853L144.785 13.398L143.264 15.14V18H141.99ZM150.598 18V8.315H151.872V16.83H156.123V18H150.598ZM160.811 18.156C160.109 18.156 159.485 18.0087 158.939 17.714C158.401 17.4193 157.981 17.0163 157.678 16.505C157.383 15.985 157.236 15.3957 157.236 14.737V8.315H158.523V14.711C158.523 15.153 158.618 15.5473 158.809 15.894C159.008 16.232 159.277 16.4963 159.615 16.687C159.961 16.8777 160.36 16.973 160.811 16.973C161.261 16.973 161.656 16.8777 161.994 16.687C162.34 16.4963 162.609 16.232 162.8 15.894C162.999 15.5473 163.099 15.153 163.099 14.711V8.315H164.386V14.737C164.386 15.3957 164.234 15.985 163.931 16.505C163.636 17.0163 163.22 17.4193 162.683 17.714C162.145 18.0087 161.521 18.156 160.811 18.156ZM169.807 18.156C169.192 18.156 168.629 18.0433 168.117 17.818C167.606 17.584 167.173 17.2677 166.817 16.869C166.462 16.4703 166.206 16.024 166.05 15.53L167.155 15.075C167.389 15.699 167.736 16.18 168.195 16.518C168.663 16.8473 169.209 17.012 169.833 17.012C170.215 17.012 170.548 16.9513 170.834 16.83C171.12 16.7087 171.341 16.5397 171.497 16.323C171.662 16.0977 171.744 15.8377 171.744 15.543C171.744 15.1357 171.627 14.815 171.393 14.581C171.168 14.3383 170.834 14.1563 170.392 14.035L168.611 13.489C167.909 13.2723 167.372 12.93 166.999 12.462C166.627 11.994 166.44 11.4567 166.44 10.85C166.44 10.3213 166.566 9.85767 166.817 9.459C167.077 9.05167 167.433 8.73533 167.883 8.51C168.343 8.276 168.863 8.159 169.443 8.159C170.024 8.159 170.548 8.263 171.016 8.471C171.493 8.679 171.896 8.96067 172.225 9.316C172.555 9.66267 172.797 10.0613 172.953 10.512L171.861 10.967C171.653 10.421 171.341 10.0093 170.925 9.732C170.509 9.446 170.02 9.303 169.456 9.303C169.11 9.303 168.802 9.36367 168.533 9.485C168.273 9.59767 168.07 9.76667 167.922 9.992C167.784 10.2087 167.714 10.4687 167.714 10.772C167.714 11.1273 167.827 11.4437 168.052 11.721C168.278 11.9983 168.62 12.2107 169.079 12.358L170.704 12.839C171.467 13.073 172.043 13.4067 172.433 13.84C172.823 14.2733 173.018 14.8107 173.018 15.452C173.018 15.9807 172.88 16.4487 172.602 16.856C172.334 17.2633 171.957 17.584 171.471 17.818C170.995 18.0433 170.44 18.156 169.807 18.156ZM176.574 18V9.485H173.948V8.315H180.448V9.485H177.861V18H176.574ZM181.676 18V8.315H187.981V9.485H182.95V12.553H187.721V13.723H182.95V16.83H187.981V18H181.676ZM189.559 18V8.315H192.978C193.62 8.315 194.183 8.43633 194.668 8.679C195.154 8.92167 195.531 9.26833 195.799 9.719C196.077 10.1697 196.215 10.6983 196.215 11.305C196.215 11.9897 196.042 12.5703 195.695 13.047C195.349 13.5237 194.881 13.866 194.291 14.074L196.54 18H195.058L192.692 13.801L193.537 14.295H190.833V18H189.559ZM190.833 13.125H193.017C193.399 13.125 193.732 13.0513 194.018 12.904C194.304 12.7567 194.525 12.5443 194.681 12.267C194.846 11.9897 194.928 11.669 194.928 11.305C194.928 10.9323 194.846 10.6117 194.681 10.343C194.525 10.0657 194.304 9.85333 194.018 9.706C193.732 9.55867 193.399 9.485 193.017 9.485H190.833V13.125ZM53.3549 34L56.8259 24.315H58.3339L61.8049 34H60.4399L59.6469 31.725H55.5129L54.7199 34H53.3549ZM55.9159 30.555H59.2439L57.3979 25.238H57.7619L55.9159 30.555ZM63.0253 34V24.315H64.0913L69.6553 32.141L69.1743 32.193V24.315H70.4613V34H69.3953L63.8573 26.122L64.2993 26.07V34H63.0253ZM71.6869 34L75.1579 24.315H76.6659L80.1369 34H78.7719L77.9789 31.725H73.8449L73.0519 34H71.6869ZM74.2479 30.555H77.5759L75.7299 25.238H76.0939L74.2479 30.555ZM81.3573 34V24.315H82.6313V32.83H86.8823V34H81.3573ZM88.3144 34V24.315H89.5884V34H88.3144ZM93.4321 34V25.485H90.8061V24.315H97.3061V25.485H94.7191V34H93.4321ZM98.5341 34V24.315H99.8081V34H98.5341ZM101.962 34V24.315H103.236V29.762L102.924 29.632L107.552 24.315H109.151L105.264 28.8L105.329 27.89L109.346 34H107.825L104.757 29.398L103.236 31.14V34H101.962Z" fill="url(#paint0_linear_2354_989)"/>
<g clip-path="url(#clip0_2354_989)">
<rect x="9.24609" y="6.97656" width="5.89967" height="27.5315" fill="url(#paint1_linear_2354_989)"/>
<rect x="23.7988" y="27.4453" width="5.11304" height="7.07952" fill="url(#paint2_linear_2354_989)"/>
<rect x="31.2715" y="21.1484" width="5.11304" height="13.3724" fill="url(#paint3_linear_2354_989)"/>
<rect x="38.7441" y="7" width="5.11304" height="27.5315" fill="url(#paint4_linear_2354_989)"/>
<path d="M9.20069 10.2843L9.20063 6.9411L15.1004 6.94264L29.305 20.7532L24.5852 25.2732L9.20069 10.2843Z" fill="url(#paint5_linear_2354_989)"/>
<path d="M37.4822 12.8631L37.4822 6.9859L35.0065 6.98462L20.3462 21.142L24.6998 25.4541L29.4195 20.7346L37.4822 12.8631Z" fill="url(#paint6_linear_2354_989)"/>
<mask id="path-8-inside-1_2354_989" fill="white">
<path d="M72.1871 12.797C70.785 10.938 68.946 9.45351 66.8331 8.475C64.7202 7.49648 62.3985 7.05416 60.0739 7.18719C57.7492 7.32023 55.4932 8.02452 53.5057 9.23769C51.5182 10.4509 49.8606 12.1354 48.6797 14.1422C47.4988 16.149 46.831 18.4161 46.7355 20.7426C46.6401 23.0691 47.1199 25.3833 48.1324 27.4801C49.1449 29.5769 50.6589 31.3916 52.5404 32.7635C54.4218 34.1354 56.6125 35.0222 58.9185 35.3452L60.8828 21.3231L72.1871 12.797Z"/>
</mask>
<path d="M72.1871 12.797C70.785 10.938 68.946 9.45351 66.8331 8.475C64.7202 7.49648 62.3985 7.05416 60.0739 7.18719C57.7492 7.32023 55.4932 8.02452 53.5057 9.23769C51.5182 10.4509 49.8606 12.1354 48.6797 14.1422C47.4988 16.149 46.831 18.4161 46.7355 20.7426C46.6401 23.0691 47.1199 25.3833 48.1324 27.4801C49.1449 29.5769 50.6589 31.3916 52.5404 32.7635C54.4218 34.1354 56.6125 35.0222 58.9185 35.3452L60.8828 21.3231L72.1871 12.797Z" fill="url(#paint7_linear_2354_989)" stroke="white" stroke-width="2" mask="url(#path-8-inside-1_2354_989)"/>
</g>
<path d="M249.964 24.168C249.227 24.168 248.545 24.0373 247.92 23.776C247.304 23.5053 246.763 23.1273 246.296 22.642C245.839 22.1567 245.484 21.5873 245.232 20.934C244.98 20.2807 244.854 19.5667 244.854 18.792C244.854 18.008 244.98 17.2893 245.232 16.636C245.484 15.9827 245.839 15.4133 246.296 14.928C246.753 14.4427 247.295 14.0693 247.92 13.808C248.545 13.5373 249.227 13.402 249.964 13.402C250.683 13.402 251.327 13.528 251.896 13.78C252.475 14.032 252.96 14.3587 253.352 14.76C253.753 15.1613 254.038 15.5907 254.206 16.048L252.946 16.622C252.703 16.0433 252.325 15.5767 251.812 15.222C251.299 14.858 250.683 14.676 249.964 14.676C249.236 14.676 248.587 14.8487 248.018 15.194C247.458 15.5393 247.019 16.02 246.702 16.636C246.385 17.252 246.226 17.9707 246.226 18.792C246.226 19.604 246.385 20.318 246.702 20.934C247.019 21.55 247.458 22.0307 248.018 22.376C248.587 22.7213 249.236 22.894 249.964 22.894C250.683 22.894 251.299 22.7167 251.812 22.362C252.325 21.998 252.703 21.5267 252.946 20.948L254.206 21.522C254.038 21.9793 253.753 22.4087 253.352 22.81C252.96 23.2113 252.475 23.538 251.896 23.79C251.327 24.042 250.683 24.168 249.964 24.168ZM259.365 24.168C258.637 24.168 257.979 24 257.391 23.664C256.803 23.3187 256.337 22.8473 255.991 22.25C255.646 21.6527 255.473 20.976 255.473 20.22C255.473 19.464 255.641 18.792 255.977 18.204C256.323 17.616 256.789 17.1493 257.377 16.804C257.965 16.4587 258.628 16.286 259.365 16.286C260.093 16.286 260.751 16.4587 261.339 16.804C261.927 17.14 262.389 17.602 262.725 18.19C263.071 18.778 263.243 19.4547 263.243 20.22C263.243 20.9853 263.066 21.6667 262.711 22.264C262.357 22.852 261.885 23.3187 261.297 23.664C260.719 24 260.075 24.168 259.365 24.168ZM259.365 22.908C259.832 22.908 260.252 22.7913 260.625 22.558C261.008 22.3247 261.307 22.0027 261.521 21.592C261.745 21.1813 261.857 20.724 261.857 20.22C261.857 19.7067 261.745 19.254 261.521 18.862C261.307 18.4607 261.008 18.1433 260.625 17.91C260.252 17.6673 259.832 17.546 259.365 17.546C258.889 17.546 258.46 17.6673 258.077 17.91C257.704 18.1433 257.405 18.4607 257.181 18.862C256.957 19.254 256.845 19.7067 256.845 20.22C256.845 20.724 256.957 21.1813 257.181 21.592C257.405 22.0027 257.704 22.3247 258.077 22.558C258.46 22.7913 258.889 22.908 259.365 22.908ZM264.942 26.8V16.454H266.216V18.078L266.048 17.756C266.328 17.308 266.71 16.9533 267.196 16.692C267.681 16.4213 268.236 16.286 268.862 16.286C269.571 16.286 270.206 16.4587 270.766 16.804C271.335 17.1493 271.783 17.6207 272.11 18.218C272.436 18.806 272.6 19.478 272.6 20.234C272.6 20.9713 272.436 21.6387 272.11 22.236C271.783 22.8333 271.335 23.3047 270.766 23.65C270.206 23.9953 269.566 24.168 268.848 24.168C268.241 24.168 267.686 24.0327 267.182 23.762C266.687 23.4913 266.304 23.1087 266.034 22.614L266.244 22.39V26.8H264.942ZM268.75 22.908C269.226 22.908 269.65 22.7913 270.024 22.558C270.397 22.3247 270.686 22.0073 270.892 21.606C271.106 21.1953 271.214 20.738 271.214 20.234C271.214 19.7113 271.106 19.254 270.892 18.862C270.686 18.4607 270.397 18.1433 270.024 17.91C269.65 17.6673 269.226 17.546 268.75 17.546C268.274 17.546 267.844 17.6627 267.462 17.896C267.088 18.1293 266.79 18.4513 266.566 18.862C266.351 19.2633 266.244 19.7207 266.244 20.234C266.244 20.738 266.351 21.1953 266.566 21.606C266.79 22.0073 267.088 22.3247 267.462 22.558C267.844 22.7913 268.274 22.908 268.75 22.908ZM274.576 27.08C274.408 27.08 274.24 27.066 274.072 27.038C273.904 27.01 273.745 26.9633 273.596 26.898V25.736C273.699 25.7547 273.825 25.7733 273.974 25.792C274.133 25.82 274.287 25.834 274.436 25.834C274.875 25.834 275.206 25.736 275.43 25.54C275.663 25.3533 275.883 25.0267 276.088 24.56L276.564 23.426L276.536 24.56L273.316 16.454H274.73L277.236 22.894H276.816L279.308 16.454H280.75L277.348 24.896C277.189 25.2973 276.984 25.6613 276.732 25.988C276.489 26.324 276.191 26.59 275.836 26.786C275.481 26.982 275.061 27.08 274.576 27.08ZM281.908 24V16.454H283.182V17.84L283.042 17.644C283.22 17.2147 283.49 16.8973 283.854 16.692C284.218 16.4773 284.662 16.37 285.184 16.37H285.646V17.602H284.988C284.456 17.602 284.027 17.77 283.7 18.106C283.374 18.4327 283.21 18.8993 283.21 19.506V24H281.908ZM286.803 24V16.454H288.105V24H286.803ZM286.803 15.25V13.57H288.105V15.25H286.803ZM293.723 27.08C293.191 27.08 292.697 26.996 292.239 26.828C291.791 26.66 291.404 26.4267 291.077 26.128C290.76 25.8387 290.517 25.498 290.349 25.106L291.567 24.546C291.698 24.9007 291.945 25.1993 292.309 25.442C292.683 25.694 293.149 25.82 293.709 25.82C294.139 25.82 294.526 25.736 294.871 25.568C295.226 25.4093 295.506 25.1667 295.711 24.84C295.917 24.5227 296.019 24.1353 296.019 23.678V21.984L296.257 22.236C295.996 22.7493 295.618 23.1413 295.123 23.412C294.638 23.6827 294.101 23.818 293.513 23.818C292.804 23.818 292.169 23.6547 291.609 23.328C291.049 22.992 290.611 22.5393 290.293 21.97C289.976 21.3913 289.817 20.752 289.817 20.052C289.817 19.3427 289.976 18.7033 290.293 18.134C290.611 17.5647 291.045 17.1167 291.595 16.79C292.155 16.454 292.79 16.286 293.499 16.286C294.087 16.286 294.619 16.4213 295.095 16.692C295.581 16.9533 295.968 17.3173 296.257 17.784L296.061 18.134V16.454H297.335V23.678C297.335 24.3313 297.181 24.9147 296.873 25.428C296.565 25.9413 296.136 26.3427 295.585 26.632C295.044 26.9307 294.423 27.08 293.723 27.08ZM293.625 22.558C294.073 22.558 294.475 22.446 294.829 22.222C295.193 21.998 295.483 21.6993 295.697 21.326C295.912 20.9433 296.019 20.5187 296.019 20.052C296.019 19.5947 295.912 19.1747 295.697 18.792C295.483 18.4093 295.193 18.106 294.829 17.882C294.475 17.658 294.073 17.546 293.625 17.546C293.168 17.546 292.753 17.658 292.379 17.882C292.006 18.106 291.712 18.4093 291.497 18.792C291.292 19.1653 291.189 19.5853 291.189 20.052C291.189 20.5187 291.292 20.9433 291.497 21.326C291.712 21.6993 292.001 21.998 292.365 22.222C292.739 22.446 293.159 22.558 293.625 22.558ZM299.354 24V13.402H300.656V17.924L300.418 17.798C300.604 17.322 300.903 16.9533 301.314 16.692C301.734 16.4213 302.224 16.286 302.784 16.286C303.325 16.286 303.806 16.4073 304.226 16.65C304.655 16.8927 304.991 17.2287 305.234 17.658C305.486 18.0873 305.612 18.5727 305.612 19.114V24H304.296V19.534C304.296 19.114 304.216 18.7593 304.058 18.47C303.908 18.1807 303.698 17.9567 303.428 17.798C303.157 17.63 302.844 17.546 302.49 17.546C302.144 17.546 301.832 17.63 301.552 17.798C301.272 17.9567 301.052 18.1853 300.894 18.484C300.735 18.7733 300.656 19.1233 300.656 19.534V24H299.354ZM310.541 24.084C309.803 24.084 309.234 23.874 308.833 23.454C308.441 23.034 308.245 22.4413 308.245 21.676V17.7H306.873V16.454H307.153C307.489 16.454 307.755 16.3513 307.951 16.146C308.147 15.9407 308.245 15.67 308.245 15.334V14.718H309.547V16.454H311.241V17.7H309.547V21.634C309.547 21.886 309.584 22.1053 309.659 22.292C309.743 22.4787 309.878 22.628 310.065 22.74C310.251 22.8427 310.499 22.894 310.807 22.894C310.872 22.894 310.951 22.8893 311.045 22.88C311.147 22.8707 311.241 22.8613 311.325 22.852V24C311.203 24.028 311.068 24.0467 310.919 24.056C310.769 24.0747 310.643 24.084 310.541 24.084Z" fill="#FE9A00"/>
<path d="M334.294 24V23.048L337.178 19.926C337.747 19.3193 338.2 18.82 338.536 18.428C338.881 18.036 339.133 17.686 339.292 17.378C339.451 17.07 339.53 16.7433 339.53 16.398C339.53 15.8287 339.362 15.39 339.026 15.082C338.69 14.774 338.247 14.62 337.696 14.62C337.136 14.62 336.66 14.7833 336.268 15.11C335.876 15.4273 335.605 15.88 335.456 16.468L334.21 16.146C334.331 15.586 334.555 15.1007 334.882 14.69C335.209 14.2793 335.615 13.962 336.1 13.738C336.585 13.514 337.117 13.402 337.696 13.402C338.331 13.402 338.886 13.528 339.362 13.78C339.847 14.0227 340.225 14.3633 340.496 14.802C340.776 15.2407 340.916 15.7493 340.916 16.328C340.916 16.7107 340.837 17.084 340.678 17.448C340.519 17.812 340.286 18.1993 339.978 18.61C339.67 19.0113 339.269 19.478 338.774 20.01L336.198 22.81H341.14V24H334.294ZM347.001 24.168C346.17 24.168 345.442 23.944 344.817 23.496C344.201 23.0387 343.72 22.4087 343.375 21.606C343.03 20.794 342.857 19.8513 342.857 18.778C342.857 17.7047 343.03 16.7667 343.375 15.964C343.72 15.152 344.201 14.522 344.817 14.074C345.433 13.626 346.156 13.402 346.987 13.402C347.818 13.402 348.541 13.626 349.157 14.074C349.773 14.522 350.254 15.152 350.599 15.964C350.954 16.7667 351.131 17.7047 351.131 18.778C351.131 19.8513 350.958 20.794 350.613 21.606C350.268 22.418 349.782 23.048 349.157 23.496C348.541 23.944 347.822 24.168 347.001 24.168ZM347.001 22.894C347.561 22.894 348.046 22.726 348.457 22.39C348.868 22.0447 349.185 21.564 349.409 20.948C349.642 20.332 349.759 19.6087 349.759 18.778C349.759 17.9473 349.642 17.224 349.409 16.608C349.185 15.992 348.863 15.516 348.443 15.18C348.032 14.844 347.547 14.676 346.987 14.676C346.427 14.676 345.942 14.844 345.531 15.18C345.12 15.516 344.798 15.992 344.565 16.608C344.341 17.224 344.229 17.9473 344.229 18.778C344.229 19.5993 344.341 20.318 344.565 20.934C344.798 21.55 345.12 22.0307 345.531 22.376C345.951 22.7213 346.441 22.894 347.001 22.894ZM352.806 24V23.048L355.69 19.926C356.259 19.3193 356.712 18.82 357.048 18.428C357.393 18.036 357.645 17.686 357.804 17.378C357.962 17.07 358.042 16.7433 358.042 16.398C358.042 15.8287 357.874 15.39 357.538 15.082C357.202 14.774 356.758 14.62 356.208 14.62C355.648 14.62 355.172 14.7833 354.78 15.11C354.388 15.4273 354.117 15.88 353.968 16.468L352.722 16.146C352.843 15.586 353.067 15.1007 353.394 14.69C353.72 14.2793 354.126 13.962 354.612 13.738C355.097 13.514 355.629 13.402 356.208 13.402C356.842 13.402 357.398 13.528 357.874 13.78C358.359 14.0227 358.737 14.3633 359.008 14.802C359.288 15.2407 359.428 15.7493 359.428 16.328C359.428 16.7107 359.348 17.084 359.19 17.448C359.031 17.812 358.798 18.1993 358.49 18.61C358.182 19.0113 357.78 19.478 357.286 20.01L354.71 22.81H359.652V24H352.806ZM364.645 24.168C363.973 24.168 363.375 24.0187 362.853 23.72C362.339 23.4213 361.933 23.0153 361.635 22.502C361.336 21.9793 361.187 21.3867 361.187 20.724C361.187 20.36 361.229 20.0007 361.313 19.646C361.397 19.2913 361.532 18.932 361.719 18.568C361.905 18.204 362.143 17.826 362.433 17.434L365.373 13.57H367.025L363.427 18.246L363.175 18.218C363.315 18.0313 363.469 17.8867 363.637 17.784C363.814 17.6813 364.001 17.6067 364.197 17.56C364.402 17.5133 364.617 17.49 364.841 17.49C365.457 17.49 366.007 17.6347 366.493 17.924C366.987 18.204 367.375 18.5913 367.655 19.086C367.944 19.5807 368.089 20.15 368.089 20.794C368.089 21.438 367.939 22.0167 367.641 22.53C367.342 23.034 366.931 23.4353 366.409 23.734C365.895 24.0233 365.307 24.168 364.645 24.168ZM364.645 22.936C365.037 22.936 365.387 22.8473 365.695 22.67C366.003 22.4833 366.245 22.2267 366.423 21.9C366.609 21.5733 366.703 21.2093 366.703 20.808C366.703 20.388 366.614 20.024 366.437 19.716C366.259 19.3987 366.017 19.1467 365.709 18.96C365.401 18.7733 365.046 18.68 364.645 18.68C364.253 18.68 363.898 18.7733 363.581 18.96C363.263 19.1467 363.016 19.3987 362.839 19.716C362.661 20.024 362.573 20.388 362.573 20.808C362.573 21.2093 362.661 21.5733 362.839 21.9C363.025 22.2267 363.273 22.4833 363.581 22.67C363.898 22.8473 364.253 22.936 364.645 22.936ZM375.977 24.168C375.315 24.168 374.708 24.0467 374.157 23.804C373.607 23.552 373.14 23.2113 372.757 22.782C372.375 22.3527 372.099 21.872 371.931 21.34L373.121 20.85C373.373 21.522 373.747 22.04 374.241 22.404C374.745 22.7587 375.333 22.936 376.005 22.936C376.416 22.936 376.775 22.8707 377.083 22.74C377.391 22.6093 377.629 22.4273 377.797 22.194C377.975 21.9513 378.063 21.6713 378.063 21.354C378.063 20.9153 377.937 20.57 377.685 20.318C377.443 20.0567 377.083 19.8607 376.607 19.73L374.689 19.142C373.933 18.9087 373.355 18.54 372.953 18.036C372.552 17.532 372.351 16.9533 372.351 16.3C372.351 15.7307 372.487 15.2313 372.757 14.802C373.037 14.3633 373.42 14.0227 373.905 13.78C374.4 13.528 374.96 13.402 375.585 13.402C376.211 13.402 376.775 13.514 377.279 13.738C377.793 13.962 378.227 14.2653 378.581 14.648C378.936 15.0213 379.197 15.4507 379.365 15.936L378.189 16.426C377.965 15.838 377.629 15.3947 377.181 15.096C376.733 14.788 376.206 14.634 375.599 14.634C375.226 14.634 374.895 14.6993 374.605 14.83C374.325 14.9513 374.106 15.1333 373.947 15.376C373.798 15.6093 373.723 15.8893 373.723 16.216C373.723 16.5987 373.845 16.9393 374.087 17.238C374.33 17.5367 374.699 17.7653 375.193 17.924L376.943 18.442C377.765 18.694 378.385 19.0533 378.805 19.52C379.225 19.9867 379.435 20.5653 379.435 21.256C379.435 21.8253 379.286 22.3293 378.987 22.768C378.698 23.2067 378.292 23.552 377.769 23.804C377.256 24.0467 376.659 24.168 375.977 24.168ZM383.297 24.168C382.802 24.168 382.364 24.0793 381.981 23.902C381.608 23.7153 381.314 23.4633 381.099 23.146C380.884 22.8193 380.777 22.446 380.777 22.026C380.777 21.6247 380.861 21.2653 381.029 20.948C381.206 20.6213 381.477 20.346 381.841 20.122C382.214 19.898 382.681 19.7393 383.241 19.646L386.041 19.184V20.276L383.535 20.696C383.05 20.78 382.695 20.934 382.471 21.158C382.256 21.382 382.149 21.6573 382.149 21.984C382.149 22.292 382.27 22.5487 382.513 22.754C382.765 22.9593 383.078 23.062 383.451 23.062C383.927 23.062 384.338 22.964 384.683 22.768C385.038 22.5627 385.313 22.2873 385.509 21.942C385.714 21.5967 385.817 21.214 385.817 20.794V18.876C385.817 18.4653 385.663 18.134 385.355 17.882C385.056 17.6207 384.66 17.49 384.165 17.49C383.736 17.49 383.353 17.602 383.017 17.826C382.69 18.0407 382.448 18.33 382.289 18.694L381.155 18.106C381.295 17.7607 381.519 17.4527 381.827 17.182C382.135 16.902 382.494 16.6827 382.905 16.524C383.316 16.3653 383.745 16.286 384.193 16.286C384.772 16.286 385.28 16.398 385.719 16.622C386.158 16.8367 386.498 17.14 386.741 17.532C386.993 17.9147 387.119 18.3627 387.119 18.876V24H385.845V22.572L386.083 22.656C385.924 22.9547 385.71 23.216 385.439 23.44C385.168 23.664 384.851 23.8413 384.487 23.972C384.123 24.1027 383.726 24.168 383.297 24.168ZM389.138 24V16.454H390.44V24H389.138ZM389.138 15.25V13.57H390.44V15.25H389.138ZM392.46 24V16.454H393.734V17.924L393.524 17.798C393.711 17.322 394.009 16.9533 394.42 16.692C394.84 16.4213 395.33 16.286 395.89 16.286C396.431 16.286 396.912 16.4073 397.332 16.65C397.761 16.8927 398.097 17.2287 398.34 17.658C398.592 18.0873 398.718 18.5727 398.718 19.114V24H397.402V19.534C397.402 19.114 397.327 18.7593 397.178 18.47C397.029 18.1807 396.814 17.9567 396.534 17.798C396.263 17.63 395.951 17.546 395.596 17.546C395.241 17.546 394.924 17.63 394.644 17.798C394.373 17.9567 394.159 18.1853 394 18.484C393.841 18.7733 393.762 19.1233 393.762 19.534V24H392.46ZM403.283 24.168C402.527 24.168 401.869 23.9813 401.309 23.608C400.749 23.2347 400.353 22.7307 400.119 22.096L401.155 21.592C401.37 22.04 401.664 22.3947 402.037 22.656C402.411 22.9173 402.826 23.048 403.283 23.048C403.694 23.048 404.035 22.95 404.305 22.754C404.576 22.558 404.711 22.3013 404.711 21.984C404.711 21.76 404.646 21.5827 404.515 21.452C404.394 21.312 404.245 21.2047 404.067 21.13C403.89 21.046 403.727 20.9853 403.577 20.948L402.443 20.626C401.762 20.43 401.263 20.15 400.945 19.786C400.637 19.422 400.483 18.9973 400.483 18.512C400.483 18.064 400.595 17.6767 400.819 17.35C401.053 17.014 401.365 16.7527 401.757 16.566C402.159 16.3793 402.607 16.286 403.101 16.286C403.764 16.286 404.357 16.454 404.879 16.79C405.411 17.126 405.789 17.5973 406.013 18.204L404.949 18.694C404.781 18.302 404.529 17.994 404.193 17.77C403.857 17.5367 403.479 17.42 403.059 17.42C402.677 17.42 402.373 17.518 402.149 17.714C401.925 17.9007 401.813 18.1387 401.813 18.428C401.813 18.6427 401.869 18.82 401.981 18.96C402.093 19.0907 402.229 19.1933 402.387 19.268C402.546 19.3333 402.7 19.3893 402.849 19.436L404.081 19.8C404.697 19.9773 405.173 20.2527 405.509 20.626C405.855 20.9993 406.027 21.4473 406.027 21.97C406.027 22.39 405.911 22.768 405.677 23.104C405.444 23.44 405.122 23.7013 404.711 23.888C404.301 24.0747 403.825 24.168 403.283 24.168ZM410.306 24V13.57H413.722C414.776 13.57 415.696 13.7847 416.48 14.214C417.264 14.6433 417.87 15.25 418.3 16.034C418.729 16.8087 418.944 17.7233 418.944 18.778C418.944 19.8233 418.729 20.738 418.3 21.522C417.87 22.306 417.264 22.9173 416.48 23.356C415.696 23.7853 414.776 24 413.722 24H410.306ZM411.678 22.74H413.736C414.51 22.74 415.178 22.5767 415.738 22.25C416.307 21.9233 416.746 21.466 417.054 20.878C417.362 20.2807 417.516 19.5807 417.516 18.778C417.516 17.966 417.357 17.266 417.04 16.678C416.732 16.09 416.293 15.6373 415.724 15.32C415.164 14.9933 414.501 14.83 413.736 14.83H411.678V22.74ZM422.645 24.168C422.15 24.168 421.711 24.0793 421.329 23.902C420.955 23.7153 420.661 23.4633 420.447 23.146C420.232 22.8193 420.125 22.446 420.125 22.026C420.125 21.6247 420.209 21.2653 420.377 20.948C420.554 20.6213 420.825 20.346 421.189 20.122C421.562 19.898 422.029 19.7393 422.589 19.646L425.389 19.184V20.276L422.883 20.696C422.397 20.78 422.043 20.934 421.819 21.158C421.604 21.382 421.497 21.6573 421.497 21.984C421.497 22.292 421.618 22.5487 421.861 22.754C422.113 22.9593 422.425 23.062 422.799 23.062C423.275 23.062 423.685 22.964 424.031 22.768C424.385 22.5627 424.661 22.2873 424.857 21.942C425.062 21.5967 425.165 21.214 425.165 20.794V18.876C425.165 18.4653 425.011 18.134 424.703 17.882C424.404 17.6207 424.007 17.49 423.513 17.49C423.083 17.49 422.701 17.602 422.365 17.826C422.038 18.0407 421.795 18.33 421.637 18.694L420.503 18.106C420.643 17.7607 420.867 17.4527 421.175 17.182C421.483 16.902 421.842 16.6827 422.253 16.524C422.663 16.3653 423.093 16.286 423.541 16.286C424.119 16.286 424.628 16.398 425.067 16.622C425.505 16.8367 425.846 17.14 426.089 17.532C426.341 17.9147 426.467 18.3627 426.467 18.876V24H425.193V22.572L425.431 22.656C425.272 22.9547 425.057 23.216 424.787 23.44C424.516 23.664 424.199 23.8413 423.835 23.972C423.471 24.1027 423.074 24.168 422.645 24.168ZM431.415 24.084C430.677 24.084 430.108 23.874 429.707 23.454C429.315 23.034 429.119 22.4413 429.119 21.676V17.7H427.747V16.454H428.027C428.363 16.454 428.629 16.3513 428.825 16.146C429.021 15.9407 429.119 15.67 429.119 15.334V14.718H430.421V16.454H432.115V17.7H430.421V21.634C430.421 21.886 430.458 22.1053 430.533 22.292C430.617 22.4787 430.752 22.628 430.939 22.74C431.125 22.8427 431.373 22.894 431.681 22.894C431.746 22.894 431.825 22.8893 431.919 22.88C432.021 22.8707 432.115 22.8613 432.199 22.852V24C432.077 24.028 431.942 24.0467 431.793 24.056C431.643 24.0747 431.517 24.084 431.415 24.084ZM436.016 24.168C435.521 24.168 435.083 24.0793 434.7 23.902C434.327 23.7153 434.033 23.4633 433.818 23.146C433.603 22.8193 433.496 22.446 433.496 22.026C433.496 21.6247 433.58 21.2653 433.748 20.948C433.925 20.6213 434.196 20.346 434.56 20.122C434.933 19.898 435.4 19.7393 435.96 19.646L438.76 19.184V20.276L436.254 20.696C435.769 20.78 435.414 20.934 435.19 21.158C434.975 21.382 434.868 21.6573 434.868 21.984C434.868 22.292 434.989 22.5487 435.232 22.754C435.484 22.9593 435.797 23.062 436.17 23.062C436.646 23.062 437.057 22.964 437.402 22.768C437.757 22.5627 438.032 22.2873 438.228 21.942C438.433 21.5967 438.536 21.214 438.536 20.794V18.876C438.536 18.4653 438.382 18.134 438.074 17.882C437.775 17.6207 437.379 17.49 436.884 17.49C436.455 17.49 436.072 17.602 435.736 17.826C435.409 18.0407 435.167 18.33 435.008 18.694L433.874 18.106C434.014 17.7607 434.238 17.4527 434.546 17.182C434.854 16.902 435.213 16.6827 435.624 16.524C436.035 16.3653 436.464 16.286 436.912 16.286C437.491 16.286 437.999 16.398 438.438 16.622C438.877 16.8367 439.217 17.14 439.46 17.532C439.712 17.9147 439.838 18.3627 439.838 18.876V24H438.564V22.572L438.802 22.656C438.643 22.9547 438.429 23.216 438.158 23.44C437.887 23.664 437.57 23.8413 437.206 23.972C436.842 24.1027 436.445 24.168 436.016 24.168Z" fill="#FE9A00"/>
<path d="M322.862 18.3663C322.89 18.1854 322.95 18.0264 323.027 17.8893C323.104 17.7522 323.213 17.637 323.35 17.5493C323.482 17.467 323.647 17.4286 323.849 17.4231C323.976 17.4286 324.091 17.4506 324.195 17.4944C324.305 17.5438 324.403 17.6096 324.48 17.6918C324.557 17.7741 324.617 17.8728 324.667 17.9825C324.716 18.0922 324.738 18.2128 324.743 18.3334H325.725C325.714 18.0757 325.665 17.8399 325.571 17.626C325.478 17.4122 325.352 17.2257 325.188 17.0722C325.023 16.9187 324.826 16.798 324.595 16.7103C324.365 16.6225 324.113 16.5841 323.833 16.5841C323.477 16.5841 323.164 16.6445 322.901 16.7706C322.638 16.8967 322.418 17.0612 322.243 17.2751C322.067 17.489 321.936 17.7357 321.853 18.0209C321.771 18.306 321.722 18.6021 321.722 18.9202V19.0682C321.722 19.3863 321.766 19.6824 321.848 19.9676C321.93 20.2527 322.062 20.4995 322.237 20.7079C322.413 20.9162 322.632 21.0862 322.895 21.2069C323.159 21.3275 323.471 21.3933 323.828 21.3933C324.085 21.3933 324.327 21.3494 324.551 21.2672C324.776 21.1849 324.974 21.0698 325.144 20.9217C325.314 20.7737 325.451 20.6037 325.549 20.4063C325.648 20.2088 325.708 20.0005 325.714 19.7756H324.732C324.727 19.8908 324.699 19.995 324.65 20.0937C324.601 20.1924 324.535 20.2747 324.453 20.3459C324.37 20.4172 324.277 20.4721 324.168 20.5104C324.063 20.5488 323.954 20.5598 323.839 20.5653C323.641 20.5598 323.477 20.5214 323.35 20.4392C323.213 20.3514 323.104 20.2363 323.027 20.0992C322.95 19.9621 322.89 19.7976 322.862 19.6166C322.835 19.4357 322.819 19.2492 322.819 19.0682V18.9202C322.819 18.7283 322.835 18.5473 322.862 18.3663ZM323.915 13.5078C320.888 13.5078 318.432 15.9645 318.432 18.9915C318.432 22.0185 320.888 24.4751 323.915 24.4751C326.942 24.4751 329.399 22.0185 329.399 18.9915C329.399 15.9645 326.942 13.5078 323.915 13.5078ZM323.915 23.3784C321.497 23.3784 319.528 21.4098 319.528 18.9915C319.528 16.5732 321.497 14.6045 323.915 14.6045C326.334 14.6045 328.302 16.5732 328.302 18.9915C328.302 21.4098 326.334 23.3784 323.915 23.3784Z" fill="#FE9A00"/>
<defs>
<linearGradient id="paint0_linear_2354_989" x1="59.4004" y1="6.28" x2="70.2762" y2="66.0623" gradientUnits="userSpaceOnUse">
<stop stop-color="#FEB800"/>
<stop offset="1" stop-color="#E27200"/>
</linearGradient>
<linearGradient id="paint1_linear_2354_989" x1="9.45258" y1="8.07782" x2="20.2877" y2="10.3876" gradientUnits="userSpaceOnUse">
<stop stop-color="#FEB800"/>
<stop offset="1" stop-color="#E27200"/>
</linearGradient>
<linearGradient id="paint2_linear_2354_989" x1="23.9778" y1="27.7285" x2="30.4525" y2="32.3805" gradientUnits="userSpaceOnUse">
<stop stop-color="#FEB800"/>
<stop offset="1" stop-color="#E27200"/>
</linearGradient>
<linearGradient id="paint3_linear_2354_989" x1="31.4504" y1="21.6833" x2="40.0267" y2="24.9456" gradientUnits="userSpaceOnUse">
<stop stop-color="#FEB800"/>
<stop offset="1" stop-color="#E27200"/>
</linearGradient>
<linearGradient id="paint4_linear_2354_989" x1="38.9231" y1="8.10126" x2="48.4162" y2="9.85515" gradientUnits="userSpaceOnUse">
<stop stop-color="#FEB800"/>
<stop offset="1" stop-color="#E27200"/>
</linearGradient>
<linearGradient id="paint5_linear_2354_989" x1="7.88721" y1="9.83565" x2="19.2658" y2="2.91698" gradientUnits="userSpaceOnUse">
<stop stop-color="#FEB800"/>
<stop offset="1" stop-color="#E27200"/>
</linearGradient>
<linearGradient id="paint6_linear_2354_989" x1="40.1027" y1="11.2085" x2="29.4099" y2="4.79186" gradientUnits="userSpaceOnUse">
<stop stop-color="#FEB800"/>
<stop offset="1" stop-color="#E27200"/>
</linearGradient>
<linearGradient id="paint7_linear_2354_989" x1="47.7148" y1="8.29679" x2="75.0417" y2="35.4824" gradientUnits="userSpaceOnUse">
<stop stop-color="#FEB800"/>
<stop offset="1" stop-color="#E27200"/>
</linearGradient>
<clipPath id="clip0_2354_989">
<rect width="47" height="37" fill="white"/>
</clipPath>
</defs>
</svg>
