<svg width="170" height="140" viewBox="0 0 170 140" fill="none" xmlns="http://www.w3.org/2000/svg">
<rect x="10.3027" y="13.6562" width="27.0614" height="126.287" fill="url(#paint0_linear_2218_800)"/>
<rect x="77.0547" y="107.508" width="23.4532" height="32.4737" fill="url(#paint1_linear_2218_800)"/>
<rect x="111.332" y="78.6406" width="23.4532" height="61.3393" fill="url(#paint2_linear_2218_800)"/>
<rect x="145.61" y="13.7109" width="23.4532" height="126.287" fill="url(#paint3_linear_2218_800)"/>
<path d="M10.0945 28.788L10.0942 13.4529L37.1563 13.4599L102.312 76.8092L80.6623 97.5424L10.0945 28.788Z" fill="url(#paint4_linear_2218_800)"/>
<path d="M139.816 40.6154L139.816 13.6565L128.46 13.6506L61.2139 78.5906L81.1836 98.3699L102.833 76.7219L139.816 40.6154Z" fill="url(#paint5_linear_2218_800)"/>
<defs>
<linearGradient id="paint0_linear_2218_800" x1="11.2499" y1="18.7077" x2="60.95" y2="29.3025" gradientUnits="userSpaceOnUse">
<stop stop-color="#FEB800"/>
<stop offset="1" stop-color="#E27200"/>
</linearGradient>
<linearGradient id="paint1_linear_2218_800" x1="77.8756" y1="108.807" x2="107.575" y2="130.145" gradientUnits="userSpaceOnUse">
<stop stop-color="#FEB800"/>
<stop offset="1" stop-color="#E27200"/>
</linearGradient>
<linearGradient id="paint2_linear_2218_800" x1="112.153" y1="81.0942" x2="151.492" y2="96.0577" gradientUnits="userSpaceOnUse">
<stop stop-color="#FEB800"/>
<stop offset="1" stop-color="#E27200"/>
</linearGradient>
<linearGradient id="paint3_linear_2218_800" x1="146.431" y1="18.7624" x2="189.976" y2="26.8073" gradientUnits="userSpaceOnUse">
<stop stop-color="#FEB800"/>
<stop offset="1" stop-color="#E27200"/>
</linearGradient>
<linearGradient id="paint4_linear_2218_800" x1="4.06958" y1="26.7302" x2="56.2631" y2="-5.00518" gradientUnits="userSpaceOnUse">
<stop stop-color="#FEB800"/>
<stop offset="1" stop-color="#E27200"/>
</linearGradient>
<linearGradient id="paint5_linear_2218_800" x1="151.836" y1="33.0254" x2="102.788" y2="3.59295" gradientUnits="userSpaceOnUse">
<stop stop-color="#FEB800"/>
<stop offset="1" stop-color="#E27200"/>
</linearGradient>
</defs>
</svg>
